<?xml version="1.0" encoding="UTF-8"?>
<svg id="Calque_1" data-name="Calque 1" xmlns="http://www.w3.org/2000/svg" viewBox="0 0 58.57 63.36">
  <defs>
    <style>
      .cls-1 {
        fill: #f5f3ea;
      }
    </style>
  </defs>
  <path class="cls-1" d="M29.29,0C13.14,0,0,14.21,0,31.68s13.14,31.68,29.29,31.68,29.29-14.21,29.29-31.68S45.44,0,29.29,0ZM46.32,9.24c-1.17,4.17-16.71,6.78-23.35,7.71-7.05.99-9.48-4.71-9.74-6.29-.4-2.39,1.23-4.84,4.48-6.72,3.11-1.8,7.25-2.89,11.63-2.89,5.28,0,10.92,1.57,15.56,5.36,1.19.97,1.67,1.92,1.41,2.83ZM17.36,49.99v-.09c.09-5.29,2.51-8.7,6.99-9.86,5.4-1.41,14.43-3.89,22.39-6.08l2.63-.72c.41-.11.82-.17,1.21-.17,2.54,0,4.48,2.2,5.02,3.61,1.03,2.65.56,4.77-.68,7.75-3.63,8.79-11.35,15.42-20.15,17.32-6.12,1.32-11.81.03-15.6-3.54-1.94-1.82-1.91-3.56-1.82-8.22ZM52.71,30.69c-.95.35-1.98.59-2.81.79-.32.08-.62.15-.85.21l-22,6.01c-3.74,1.02-6.06.07-7.34-.9-1.73-1.32-2.35-3.2-2.35-4.4v-2.43c0-8.02,4.63-9.98,10.68-11.7,3.46-.99,6.61-1.82,9.66-2.62,1.86-.49,3.78-1,5.78-1.54,5.18-1.41,8.52-1.82,11.21,4.32,1.81,4.13,2.24,7.2,1.32,9.37-.57,1.34-1.68,2.31-3.3,2.91ZM15.83,24.24v24.62c.01,6.74-.65,7.17-1.72,7.31-.99.13-2.33-.45-3-1.06C.91,45.87-1.89,29.48,4.6,16.98c1.3-2.51,2.1-3.22,3.03-3.59.36-.14.72-.21,1.09-.21,1.97,0,3.91,1.88,4.81,3.49,2.23,4.01,2.32,5.22,2.3,7.56Z"/>
</svg>
