<?xml version="1.0" encoding="UTF-8"?>
<svg id="Calque_1" data-name="Calque 1" xmlns="http://www.w3.org/2000/svg" viewBox="0 0 231.21 15.98">
  <defs>
    <style>
      .cls-1 {
        fill: #1c1a18;
      }
    </style>
  </defs>
  <polygon class="cls-1" points="12.65 .42 12.2 2.38 8.37 12.64 4.51 2.38 4.03 .42 0 .42 .36 2.54 .36 13.44 0 15.56 2.64 15.56 2.3 13.44 2.3 2.29 7.18 15.56 9.03 15.56 14.09 2.27 14.09 13.44 13.72 15.56 16.57 15.56 16.23 13.44 16.23 2.54 16.57 .42 12.65 .42"/>
  <polygon class="cls-1" points="22.76 .42 23.13 2.54 23.13 13.44 22.76 15.56 25.84 15.56 25.48 13.44 25.48 2.54 25.84 .42 22.76 .42"/>
  <g>
    <path class="cls-1" d="M31.64,7.93C31.64,2.78,34.78.02,39.02.02c1.62,0,3.19.3,4.74.84l.39,2.58-2.42-1.32c-.89-.23-1.78-.32-2.53-.32-2.87,0-5.13,1.94-5.13,6.09s2.21,6.29,5.31,6.29c.71,0,1.57-.09,2.48-.34l2.37-1.35-.39,2.62c-1.57.55-2.99.84-4.63.84-4.47,0-7.59-2.87-7.59-8.02"/>
    <path class="cls-1" d="M56.58,7.76c2.28,0,3.67-.98,3.67-2.87s-1.07-2.87-3.35-2.87h-4.1v5.74h3.78ZM63.65,15.56h-3.53l-.55-1.71-3.33-4.38h-3.4v3.97l.43,2.12h-3.15l.36-2.12V2.54l-.36-2.12h7.11c3.62,0,5.33,1.6,5.33,4.47,0,2.23-1.37,3.78-3.97,4.22l5.04,6.45Z"/>
    <path class="cls-1" d="M81.15,7.96c0-4.1-2.12-6.2-5.13-6.2s-5.15,2.1-5.15,6.2,2.1,6.25,5.11,6.25,5.17-2.14,5.17-6.25M68.4,7.96c0-5.01,3.01-7.96,7.59-7.96s7.59,2.94,7.59,7.96-3.01,8.02-7.59,8.02-7.59-2.98-7.59-8.02"/>
    <path class="cls-1" d="M103.14,9.72c0-.96-.74-1.44-2.21-1.44h-2.66v2.82h2.62c.79,0,1.36-.11,1.72-.33.35-.21.53-.57.53-1.05M102.34,5.16c-.33-.19-.87-.28-1.61-.28h-2.46v2.45h2.6c.68,0,1.18-.1,1.5-.31.32-.2.48-.53.48-.97,0-.41-.17-.71-.5-.9M97.16,3.92h3.63c2.14,0,3.21.7,3.21,2.09,0,.88-.45,1.46-1.34,1.74,1.1.37,1.65,1.02,1.65,1.95,0,.77-.28,1.35-.86,1.76-.57.4-1.41.6-2.51.6h-3.79V3.92Z"/>
  </g>
  <polygon class="cls-1" points="110.33 8.64 106.83 3.92 108.18 3.92 110.92 7.67 113.66 3.92 114.96 3.92 111.46 8.64 111.46 12.06 110.33 12.06 110.33 8.64"/>
  <polygon class="cls-1" points="129.47 .42 129.12 2.66 131.29 2.16 134.34 2.16 134.34 13.44 133.75 15.56 137.28 15.56 136.69 13.44 136.69 2.16 139.77 2.16 141.91 2.66 141.57 .42 129.47 .42"/>
  <polygon class="cls-1" points="157.72 .42 158.08 2.54 158.08 6.97 149.9 6.97 149.9 2.54 150.26 .42 147.19 .42 147.55 2.54 147.55 13.44 147.19 15.56 150.26 15.56 149.9 13.44 149.9 8.7 158.08 8.7 158.08 13.44 157.72 15.56 160.79 15.56 160.43 13.44 160.43 2.54 160.79 .42 157.72 .42"/>
  <polygon class="cls-1" points="166.96 .42 167.33 2.54 167.33 13.44 166.96 15.56 178.38 15.56 178.73 13.37 176.58 13.87 169.65 13.87 169.65 8.63 174.69 8.63 176.44 8.88 176.44 6.74 174.69 6.99 169.65 6.99 169.65 2.11 176.47 2.11 178.59 2.61 178.27 .42 166.96 .42"/>
  <polygon class="cls-1" points="191.98 .42 192.35 2.54 192.35 13.44 191.98 15.56 195.29 15.56 194.7 13.44 194.7 9.45 199.92 9.45 201.67 9.7 201.67 7.56 199.92 7.81 194.7 7.81 194.7 2.11 201.31 2.11 203.43 2.61 203.11 .42 191.98 .42"/>
  <polygon class="cls-1" points="208.72 .42 209.09 2.54 209.09 13.44 208.72 15.56 211.8 15.56 211.44 13.44 211.44 2.54 211.8 .42 208.72 .42"/>
  <polygon class="cls-1" points="227.63 .42 226.83 2.56 223.98 6.42 221.09 2.56 220.31 .42 216.75 .42 222.3 7.72 216.28 15.56 219.47 15.56 220.29 13.42 223.53 9.08 226.81 13.42 227.58 15.56 231.21 15.56 225.23 7.74 230.75 .42 227.63 .42"/>
</svg>